<?xml version="1.0" encoding="utf-8"?>
<!-- Generator: Adobe Illustrator 24.0.1, SVG Export Plug-In . SVG Version: 6.00 Build 0)  -->
<svg version="1.1" id="Layer_1" xmlns="http://www.w3.org/2000/svg" xmlns:xlink="http://www.w3.org/1999/xlink" x="0px" y="0px"
	 viewBox="0 0 1080 1080" style="enable-background:new 0 0 1080 1080;" xml:space="preserve">
<style type="text/css">
	.st0{fill:#1B65F1;}
</style>
<g>
	<path class="st0" d="M937.42,249.92c0,6.01-1.56,12.09-4.84,17.64l-289.8,490.17c-12.72,21.53-43.85,21.56-56.63,0.07l-55.36-93.11
		l-54.99,93.03c-12.7,21.47-43.73,21.57-56.57,0.18L247.7,471.94c-9.87-16.44-4.53-37.77,11.91-47.63
		c5.59-3.35,11.75-4.95,17.83-4.95c11.8,0,23.3,6.01,29.81,16.87l139.99,233.36l43.11-72.92l-72.67-122.21
		c-9.8-16.49-4.38-37.79,12.1-47.59c5.57-3.3,11.68-4.88,17.72-4.88c11.84,0,23.38,6.06,29.88,16.98l53.26,89.58l175.18-296.31
		c9.76-16.51,31.05-21.97,47.56-12.21c10.96,6.48,17.06,18.05,17.06,29.92c0,6.01-1.56,12.09-4.84,17.64l-194.51,329l43.28,72.8
		L872.8,232.21c9.76-16.51,31.05-21.97,47.56-12.21C931.32,226.48,937.42,238.05,937.42,249.92"/>
	<path class="st0" d="M865,559.45c18.05,1.02,31.43,17.27,28.83,35.17c-2.07,14.24-4.94,28.34-8.59,42.16
		c-6.32,23.94-15.06,47.35-25.97,69.57c-10.71,21.81-23.62,42.7-38.38,62.09c-14.6,19.2-31.15,37.09-49.16,53.18
		c-18.02,16.09-37.65,30.51-58.37,42.87c-20.92,12.48-43.13,22.96-66.01,31.15c-23.31,8.34-47.55,14.4-72.05,17.99
		c-25.12,3.68-50.82,4.82-76.37,3.38c-25.56-1.44-50.96-5.46-75.52-11.94c-23.94-6.32-47.34-15.06-69.57-25.97
		c-21.81-10.71-42.7-23.62-62.09-38.38c-19.19-14.61-37.09-31.15-53.18-49.16c-16.09-18.02-30.52-37.65-42.87-58.37
		c-12.48-20.92-22.96-43.13-31.15-66.01c-8.35-23.31-14.4-47.55-17.99-72.05c-3.68-25.13-4.81-50.82-3.38-76.38
		c1.44-25.56,5.46-50.96,11.94-75.52c6.32-23.94,15.06-47.34,25.97-69.57c10.71-21.81,23.62-42.7,38.38-62.09
		c14.61-19.19,31.15-37.09,49.16-53.18c18.02-16.09,37.65-30.51,58.37-42.87c20.92-12.48,43.13-22.96,66.01-31.15
		c23.31-8.35,47.55-14.4,72.05-17.99c25.12-3.68,50.82-4.81,76.38-3.38c14.29,0.81,28.52,2.42,42.59,4.81
		c17.89,3.05,29.36,20.73,24.76,38.28c-4.06,15.49-19.28,25.31-35.06,22.61c-11.7-2.01-23.64-3.37-35.77-4.05
		c-165.64-9.34-309.1,111.34-330.81,273.11c-25.75,191.86,126.27,362.05,319.8,358.03c153.87-3.19,283.62-118.06,305.75-270.03
		C835.02,569.95,849.05,558.55,865,559.45"/>
</g>
</svg>